<?xml version="1.0" standalone="no"?>
<!DOCTYPE svg PUBLIC "-//W3C//DTD SVG 20010904//EN"
 "http://www.w3.org/TR/2001/REC-SVG-20010904/DTD/svg10.dtd">
<svg version="1.0" xmlns="http://www.w3.org/2000/svg"
 width="847.000000pt" height="847.000000pt" viewBox="0 0 847.000000 847.000000"
 preserveAspectRatio="xMidYMid meet">
<metadata>
Created by potrace 1.11, written by Peter Selinger 2001-2013
</metadata>
<g transform="translate(0.000000,847.000000) scale(0.100000,-0.100000)"
fill="#000000" stroke="none">
<path d="M2499 8296 c-2 -2 -44 -6 -94 -10 -115 -9 -162 -14 -203 -21 -17 -3
-49 -8 -69 -11 -52 -6 -95 -14 -102 -18 -3 -2 -24 -7 -46 -10 -105 -17 -454
-124 -480 -147 -5 -5 -15 -9 -22 -9 -22 0 -240 -109 -356 -177 -294 -175 -556
-427 -746 -718 -68 -105 -182 -334 -226 -459 -38 -105 -100 -333 -110 -401 -4
-22 -10 -67 -16 -100 -5 -33 -13 -91 -17 -130 -10 -94 -9 -3599 1 -3699 8 -79
13 -122 22 -181 3 -16 7 -48 10 -70 14 -96 60 -280 100 -400 112 -341 281
-620 520 -861 207 -208 378 -320 710 -465 22 -9 79 -30 170 -60 97 -33 313
-87 410 -104 50 -8 97 -17 105 -20 8 -2 44 -7 79 -10 36 -3 67 -8 70 -9 3 -2
42 -7 86 -11 44 -4 98 -10 120 -13 22 -3 1393 -7 3048 -9 l3007 -4 0 611 0
610 -2682 0 c-1476 0 -2737 2 -2802 5 -242 8 -501 47 -663 100 -364 119 -585
328 -691 652 -26 77 -58 228 -67 308 -4 33 -10 69 -13 80 -11 35 -11 3332 -1
3435 15 141 55 331 91 423 32 85 92 202 115 225 7 7 13 17 13 22 0 19 151 161
218 205 119 76 290 145 427 171 11 2 31 6 45 9 14 3 43 7 65 11 22 3 67 9 100
14 153 22 337 25 1790 25 1367 0 1675 -4 1735 -20 8 -2 33 -6 55 -9 198 -24
400 -109 497 -212 64 -67 75 -83 112 -157 44 -89 63 -158 93 -342 15 -89 17
-250 19 -1525 2 -1225 1 -1433 -12 -1479 -8 -30 -19 -60 -24 -67 -15 -18 -116
-43 -204 -50 -43 -4 -169 -7 -280 -7 l-201 -1 -3 1677 -2 1678 -1433 -4 c-787
-1 -1443 -6 -1457 -9 -14 -4 -43 -10 -65 -13 -22 -4 -53 -9 -70 -11 -98 -16
-212 -54 -341 -114 -285 -132 -499 -373 -598 -671 -40 -122 -52 -179 -74 -354
-4 -33 -7 -528 -6 -1100 1 -899 4 -1154 18 -1225 1 -8 6 -37 10 -65 12 -73 43
-190 73 -270 143 -382 432 -612 872 -695 125 -23 155 -27 281 -37 123 -9 600
-9 711 0 96 8 237 43 331 83 76 32 227 110 249 130 19 17 39 18 39 2 1 -31 29
-208 34 -217 6 -8 2336 -5 2421 3 130 13 160 17 275 43 267 59 474 166 633
329 122 125 228 304 286 482 31 93 36 115 47 182 3 19 7 41 9 48 17 49 20 310
20 1657 0 1323 -4 1639 -21 1729 -2 11 -6 40 -9 65 -11 99 -47 258 -86 386
-176 570 -531 972 -1039 1173 -173 69 -413 134 -590 162 -41 6 -84 13 -95 15
-11 1 -56 6 -100 10 -44 4 -91 9 -105 13 -26 7 -3913 15 -3921 8z m1276 -2879
c22 -13 288 -201 592 -418 303 -217 600 -428 660 -469 59 -41 120 -88 135
-104 55 -57 60 -140 15 -207 -26 -39 -70 -73 -331 -254 -103 -71 -196 -137
-206 -145 -11 -8 -41 -30 -67 -48 -68 -47 -451 -321 -620 -444 -79 -57 -162
-111 -185 -120 -86 -35 -181 -9 -213 59 -18 36 -19 92 -19 1043 -1 1000 -1
1005 20 1045 41 79 140 107 219 62z"/>
</g>
</svg>
